HIERARCHY
ROOT Hips
{
	OFFSET -3.958830 18.904000 13.208200
	CHANNELS 6 Xposition Yposition Zposition Zrotation Yrotation Xrotation 
	JOINT LHipJoint
	{
		OFFSET 0.000000 0.000000 0.000000
		CHANNELS 3 Zrotation Yrotation Xrotation
		JOINT LeftUpLeg
		{
			OFFSET 1.800000 -1.400000 0.085000
			CHANNELS 3 Zrotation Yrotation Xrotation
			JOINT LeftLeg
			{
				OFFSET 2.215000 -6.000000 0.000000
				CHANNELS 3 Zrotation Yrotation Xrotation
				JOINT LeftFoot
				{
					OFFSET 2.500000 -6.900000 0.000000
					CHANNELS 3 Zrotation Yrotation Xrotation
					JOINT LeftToeBase
					{
						OFFSET 0.200000 -0.500000 1.950000
						CHANNELS 3 Zrotation Yrotation Xrotation
						End Site
						{
							OFFSET 0.000000 0.000000 0.000000
						}
					}
				}
			}
		}
	}
	JOINT RHipJoint
	{
		OFFSET 0.000000 0.000000 0.000000
		CHANNELS 3 Zrotation Yrotation Xrotation
		JOINT RightUpLeg
		{
			OFFSET -1.800000 -1.400000 0.085000
			CHANNELS 3 Zrotation Yrotation Xrotation
			JOINT RightLeg
			{
				OFFSET -2.215000 -6.000000 0.000000
				CHANNELS 3 Zrotation Yrotation Xrotation
				JOINT RightFoot
				{
					OFFSET -2.500000 -6.900000 0.000000
					CHANNELS 3 Zrotation Yrotation Xrotation
					JOINT RightToeBase
					{
						OFFSET -0.200000 -0.500000 1.950000
						CHANNELS 3 Zrotation Yrotation Xrotation
						End Site
						{
							OFFSET 0.000000 0.000000 0.000000
						}
					}
				}
			}
		}
	}
	JOINT LowerBack
	{
		OFFSET 0.000000 0.000000 0.000000
		CHANNELS 3 Zrotation Yrotation Xrotation
		JOINT Spine
		{
			OFFSET -0.087000 1.940000 -0.288900
			CHANNELS 3 Zrotation Yrotation Xrotation
			JOINT Spine1
			{
				OFFSET 0.000000 1.950000 0.060000
				CHANNELS 3 Zrotation Yrotation Xrotation
				JOINT Neck
				{
					OFFSET 0.000000 0.000000 0.000000
					CHANNELS 3 Zrotation Yrotation Xrotation
					JOINT Neck1
					{
						OFFSET 0.000000 1.600000 0.340000
						CHANNELS 3 Zrotation Yrotation Xrotation
						JOINT Head
						{
							OFFSET 0.000000 1.667000 -0.240000
							CHANNELS 3 Zrotation Yrotation Xrotation
							End Site
							{
								OFFSET 0.000000 0.000000 0.000000
							}
						}
					}
				}
				JOINT LeftShoulder
				{
					OFFSET 0.000000 0.000000 0.000000
					CHANNELS 3 Zrotation Yrotation Xrotation
					JOINT LeftArm
					{
						OFFSET 2.700000 1.550000 -0.730000
						CHANNELS 3 Zrotation Yrotation Xrotation
						JOINT LeftForeArm
						{
							OFFSET 5.450000 0.000000 0.000000
							CHANNELS 3 Zrotation Yrotation Xrotation
							JOINT LeftHand
							{
								OFFSET 3.450000 0.000000 0.000000
								CHANNELS 3 Zrotation Yrotation Xrotation
								JOINT LeftHandIndex1
								{
									OFFSET 0.750000 0.000000 0.000000
									CHANNELS 3 Zrotation Yrotation Xrotation
									End Site
									{
										OFFSET 0.000000 0.000000 0.000000
									}
								}
							}
						}
					}
				}
				JOINT RightShoulder
				{
					OFFSET 0.000000 0.000000 0.000000
					CHANNELS 3 Zrotation Yrotation Xrotation
					JOINT RightArm
					{
						OFFSET -2.700000 1.550000 -0.730000
						CHANNELS 3 Zrotation Yrotation Xrotation
						JOINT RightForeArm
						{
							OFFSET -5.450000 0.000000 0.000000
							CHANNELS 3 Zrotation Yrotation Xrotation
							JOINT RightHand
							{
								OFFSET -3.450000 0.000000 0.000000
								CHANNELS 3 Zrotation Yrotation Xrotation
								JOINT RightHandIndex1
								{
									OFFSET -0.750000 0.000000 0.000000
									CHANNELS 3 Zrotation Yrotation Xrotation
									End Site
									{
										OFFSET 0.000000 0.000000 0.000000
									}
								}
							}
						}
					}
				}
			}
		}
	}
}
MOTION
Frames: 4
Frame Time: 0.016667
11.806850 16.367770 -21.217180 -160.657345 -78.759167 159.897851 -15.711196 12.890513 3.658863 14.389740 -2.523020 -27.965352 -11.627383 7.954775 16.992349 0.139022 4.498000 2.835390 -0.058140 -0.064600 -0.013940 17.650668 -10.344910 2.682466 -19.452441 1.927791 -10.684701 23.784592 -17.402874 32.915447 -0.874603 -7.745698 1.573294 -0.079970 0.084200 0.015520 -4.409452 -1.786493 -7.794485 8.940170 -2.518006 10.085438 -10.651774 -0.360397 0.185818 3.534588 -7.189030 -11.771711 -13.786522 6.507853 26.952504 -2.374530 5.618290 -3.225950 -5.234958 0.778286 4.137555 -34.565981 5.646515 -3.311798 5.265327 6.216062 0.244971 -4.027247 2.893695 0.040850 0.017040 -0.007300 0.015300 -1.575427 6.260753 7.144799 40.926609 0.077634 -4.857209 10.480743 4.208951 -0.485039 2.842872 -1.152779 -0.039630 0.019350 0.006070 0.021590 
11.790720 16.386100 -21.203060 -155.120728 -77.753375 152.968238 -15.738942 13.010160 3.667398 15.731208 -2.010047 -30.639259 -7.634037 8.555507 23.382237 0.133228 4.976102 2.628341 -0.042290 -0.050110 -0.003800 17.623504 -10.457284 2.614653 -19.107864 2.153048 -9.144352 22.316672 -17.028355 33.806161 -0.868510 -7.765608 1.572136 -0.060000 0.084730 0.011460 -4.389684 -1.385823 -7.867618 8.869007 -0.638423 11.127253 -8.088241 1.482035 1.021061 2.893459 -6.163099 -12.045486 -12.048974 5.166328 28.884036 -1.670890 4.301580 -2.631560 -4.384236 -0.262102 4.399464 -30.891043 4.821527 -2.710828 1.971792 6.702308 -0.167940 -4.036408 2.864654 0.038010 0.020130 -0.013290 0.016130 -1.142403 7.080613 7.618830 35.537683 1.055773 -3.086547 5.919627 -1.406131 -0.490733 2.973208 -1.105465 -0.043850 0.025780 0.002470 0.019180 
11.656680 16.375780 -21.121270 -141.312199 -81.155624 138.215032 -15.501862 12.934516 4.173937 18.712593 -1.483666 -29.168636 -14.495012 10.452020 21.016906 0.284281 5.897895 2.317781 -0.071560 -0.085600 -0.051820 17.849723 -10.667182 2.074926 -19.402527 1.230903 -5.482352 15.450245 -14.675857 34.607539 -0.692229 -7.328446 1.741292 -0.057940 0.153150 0.014880 -3.897931 -1.486628 -7.769680 8.068697 0.151734 9.679726 -5.215931 1.710887 2.024936 2.162938 -6.185396 -12.078453 -12.735739 4.495758 30.415868 -1.327840 2.828190 0.006280 -3.159122 0.475335 3.969413 -26.753177 2.976915 -1.899448 2.860182 8.145711 -0.150990 -4.124212 2.856623 -0.011960 0.068820 -0.069600 0.026780 -0.696537 6.208764 8.328314 27.328005 -1.594121 -2.746446 -2.791054 1.263455 -0.124306 2.965682 -1.157396 -0.058120 0.041090 0.031730 0.041770 
11.503470 16.391130 -20.994110 -118.205122 -82.553123 112.917823 -15.258989 13.166252 4.120094 18.408197 -1.176583 -27.547492 -14.364368 10.890530 22.400678 0.342916 6.081231 2.256530 -0.101140 -0.127050 -0.058240 18.009260 -10.963783 2.010143 -19.542741 0.810487 -1.983731 12.805023 -13.790155 34.644721 -0.680643 -7.235932 1.799738 -0.094130 0.145930 0.009330 -3.689325 -1.306397 -7.731239 8.531578 0.250761 9.392991 -4.658393 1.711023 3.504418 2.682139 -4.898605 -13.441671 -10.764283 4.494900 34.126261 -0.646490 2.913770 2.228440 0.827552 -0.847903 4.985354 -24.535132 3.218474 -2.107735 4.382331 12.329514 0.057779 -4.223963 2.789200 -0.005250 0.063790 -0.066990 0.014320 -5.685604 7.160600 9.552717 21.534165 0.041869 -1.378393 6.265479 2.259464 -0.397723 2.907103 -1.066209 -0.057900 0.023200 0.038550 0.037090 
